<svg width="77" height="77" viewBox="0 0 77 77" fill="none" xmlns="http://www.w3.org/2000/svg">
<path d="M38.5 77C59.763 77 77 59.763 77 38.5C77 17.237 59.763 0 38.5 0C17.237 0 0 17.237 0 38.5C0 59.763 17.237 77 38.5 77Z" fill="#F7F9F9"/>
<path d="M38.5 76.5C59.4868 76.5 76.5 59.4868 76.5 38.5C76.5 17.5132 59.4868 0.5 38.5 0.5C17.5132 0.5 0.5 17.5132 0.5 38.5C0.5 59.4868 17.5132 76.5 38.5 76.5Z" stroke="#E6E6E6"/>
<path d="M55.5 17.7681V59.2331H26.993C26.301 59.2393 25.6151 59.1031 24.978 58.8331C23.7336 58.3042 22.7428 57.3134 22.2139 56.0691C21.9445 55.4321 21.8084 54.7467 21.814 54.0551V22.9551C21.8156 22.286 21.9641 21.6254 22.249 21.0201C22.8186 19.7796 23.8112 18.7825 25.049 18.2071C25.6564 17.9199 26.3201 17.7713 26.992 17.7721L55.5 17.7681ZM52.908 51.4581H26.993C26.6455 51.454 26.3008 51.5221 25.981 51.6581C25.3634 51.9251 24.871 52.4175 24.604 53.0351C24.4705 53.3559 24.4019 53.7 24.4019 54.0476C24.4019 54.3951 24.4705 54.7392 24.604 55.0601C24.8707 55.6778 25.3633 56.1703 25.981 56.4371C26.3008 56.573 26.6455 56.6411 26.993 56.6371H52.908V51.4581ZM24.401 49.5581C25.1892 49.104 26.0833 48.8657 26.993 48.8671H52.908V20.3601H26.993C26.6683 20.3634 26.349 20.4432 26.061 20.5931C25.4431 20.9014 24.9423 21.4022 24.634 22.0201C24.4844 22.3082 24.4046 22.6274 24.401 22.9521V49.5581Z" fill="#007E7A"/>
<path d="M29.701 25.324V33.096H47.842V25.324H29.701ZM45.25 30.504H32.29V27.913H45.25V30.504Z" fill="#ECB11F"/>
</svg>
