<svg xmlns="http://www.w3.org/2000/svg" width="40.191" height="45.933" viewBox="0 0 40.191 45.933">
  <path id="Icon_metro-files-empty" data-name="Icon metro-files-empty" d="M44.671,19.9l-5.458-6.008L33.207,7.67H13.829a3.593,3.593,0,0,0-3.588,3.588V44.272a3.593,3.593,0,0,0,3.588,3.588H41.1a3.593,3.593,0,0,0,3.588-3.588l-.019-22.249c0-.643,0-2.124,0-2.124Zm-7.854-4.32s2.5,2.543,3.3,3.573H33.207V12.247c1.031.8,3.61,3.332,3.61,3.332Zm5,28.693a.727.727,0,0,1-.718.718H13.829a.727.727,0,0,1-.718-.718V11.258a.727.727,0,0,1,.718-.718H30.336V20.588a1.435,1.435,0,0,0,1.435,1.435H41.819ZM28.673,3.821,24.594,1.928H8.087A3.593,3.593,0,0,0,4.5,5.517V38.531A3.6,3.6,0,0,0,7.37,42.047V5.517A.727.727,0,0,1,8.087,4.8H30.336a13.638,13.638,0,0,0-1.663-.978Z" transform="translate(-4.499 -1.928)" fill="#d5d5d5"/>
</svg>
