<svg xmlns="http://www.w3.org/2000/svg" width="38" height="38" viewBox="0 0 38 38">
  <g id="Grupo_27471" data-name="Grupo 27471" transform="translate(1085.732 -692.281)">
    <g id="Grupo_27468" data-name="Grupo 27468" transform="translate(-1085.732 692.281)">
      <g id="Grupo_27465" data-name="Grupo 27465" transform="translate(0)">
        <path id="Caminho_26570" data-name="Caminho 26570" d="M-1073.547,727.989a.984.984,0,0,0-.469-1.31A17.053,17.053,0,0,1-1082.131,704a17.053,17.053,0,0,1,22.682-8.115.984.984,0,0,0,1.31-.469.983.983,0,0,0-.469-1.31,19.023,19.023,0,0,0-25.3,9.052,19.023,19.023,0,0,0,9.052,25.3A.984.984,0,0,0-1073.547,727.989Z" transform="translate(1085.732 -692.281)" fill="#ecb11f"/>
      </g>
      <g id="Grupo_27466" data-name="Grupo 27466" transform="translate(10.312 1.729)">
        <path id="Caminho_26571" data-name="Caminho 26571" d="M-1007.447,726.463a19.023,19.023,0,0,0-9.052-25.3.984.984,0,0,0-1.31.469.984.984,0,0,0,.469,1.31,17.053,17.053,0,0,1,8.115,22.681,17.053,17.053,0,0,1-22.681,8.115.984.984,0,0,0-1.31.469.984.984,0,0,0,.469,1.31A19.023,19.023,0,0,0-1007.447,726.463Z" transform="translate(1033.311 -701.068)" fill="#e6aa11"/>
      </g>
      <g id="Grupo_27467" data-name="Grupo 27467" transform="translate(10.312 1.729)">
        <path id="Caminho_26572" data-name="Caminho 26572" d="M-1007.447,726.463a19.023,19.023,0,0,0-9.052-25.3.984.984,0,0,0-1.31.469.984.984,0,0,0,.469,1.31,17.053,17.053,0,0,1,8.115,22.681,17.053,17.053,0,0,1-22.681,8.115.984.984,0,0,0-1.31.469.984.984,0,0,0,.469,1.31A19.023,19.023,0,0,0-1007.447,726.463Z" transform="translate(1033.311 -701.068)" fill="#007e7a"/>
      </g>
    </g>
    <g id="Grupo_27469" data-name="Grupo 27469" transform="translate(-1068.054 705.209)">
      <path id="Caminho_26573" data-name="Caminho 26573" d="M-994.884,768.812a.982.982,0,0,0,.7-.288l8.844-8.845a.984.984,0,0,0,0-1.391.984.984,0,0,0-1.391,0l-8.844,8.844a.984.984,0,0,0,0,1.391A.981.981,0,0,0-994.884,768.812Z" transform="translate(995.868 -758)" fill="#007e7a"/>
    </g>
    <g id="Grupo_27470" data-name="Grupo 27470" transform="translate(-1074.222 707.904)">
      <path id="Caminho_26574" data-name="Caminho 26574" d="M-1020.09,779.814a.981.981,0,0,0,.7-.288.984.984,0,0,0,0-1.391l-6.15-6.15a.984.984,0,0,0-1.391,0,.984.984,0,0,0,0,1.391l6.15,6.15A.981.981,0,0,0-1020.09,779.814Z" transform="translate(1027.224 -771.697)" fill="#ecb11f"/>
    </g>
  </g>
</svg>
