<svg xmlns="http://www.w3.org/2000/svg" width="24.91" height="36.219" viewBox="0 0 24.91 36.219">
  <g id="Grupo_27472" data-name="Grupo 27472" transform="translate(-6.906 -1565.303)">
    <path id="Caminho_26575" data-name="Caminho 26575" d="M52.372,1574.144c0-1.5-.042-3,0-4.494a2.809,2.809,0,0,1,3.749-2.473c.168.059.227.056.3-.126a2.827,2.827,0,0,1,4.849-.649c.089.115.144.164.305.081a2.821,2.821,0,0,1,4.127,2.316c0,.029.007.057.012.105a3.383,3.383,0,0,1,1.131-.175,2.83,2.83,0,0,1,2.71,2.793q0,5.918,0,11.835c0,.087-.006.173-.009.26a.953.953,0,0,1-1.049.7c-.251,0-.5,0-.752.007a.37.37,0,0,0-.043-.006H59.57a.8.8,0,0,0-.429.13.97.97,0,0,0-.441.907c.005,1.707,0,3.415,0,5.122a.936.936,0,0,0,1.076,1.073h7.965q0,.905,0,1.811-4.062,0-8.123,0a2.7,2.7,0,0,1-2.729-2.725q0-2.715,0-5.43a2.648,2.648,0,0,1,.107-.748,2.717,2.717,0,0,1,2.727-1.965q3.9,0,7.8,0c.191,0,.236-.045.235-.236q-.009-5.256,0-10.512c0-.094,0-.188-.008-.282a1.015,1.015,0,0,0-1.261-.89,1.043,1.043,0,0,0-.772,1.1q0,3.149,0,6.3a.891.891,0,0,1-1.156.873.934.934,0,0,1-.655-1.006q0-4.388,0-8.775a1.09,1.09,0,0,0-.181-.657,1.01,1.01,0,0,0-1.11-.392,1,1,0,0,0-.733.965c-.006,1.1,0,2.2,0,3.3q0,2.824,0,5.647a.91.91,0,1,1-1.817,0q0-2.9,0-5.8c0-1.332,0-2.664,0-4a1.014,1.014,0,0,0-1.323-.968,1.045,1.045,0,0,0-.71,1.055q0,4.681,0,9.361c0,.152.005.3,0,.456a.9.9,0,0,1-1.075.829.913.913,0,0,1-.736-.983q0-3.942,0-7.884c0-.073,0-.145,0-.217a1.012,1.012,0,0,0-2.021.064c0,.391,0,.782,0,1.173q0,1.585-.01,3.171a.924.924,0,0,0-1.8-.047Z" transform="translate(-37.75 0)" fill="#027c7b"/>
    <path id="Caminho_26576" data-name="Caminho 26576" d="M52.388,1614.062a.924.924,0,0,1,1.8.047c0,.108.009.217.009.325q0,10.282,0,20.563a.893.893,0,0,0,.994.989H63.4c1.151,0,2.3,0,3.452,0a.868.868,0,0,0,.906-.879c.012-.607,0-1.215,0-1.823s0-1.208,0-1.812c0-.086.009-.173.009-.26q0-3.483,0-6.966c.251,0,.5-.006.752-.007a.953.953,0,0,0,1.049-.7c0,.087.009.173.009.26,0,3.771.01,7.542-.005,11.313a2.6,2.6,0,0,1-1.613,2.466.28.28,0,0,0-.2.3,4.184,4.184,0,0,1-.162,1.565,3,3,0,0,1-2.807,1.993q-3.811.011-7.621,0a2.969,2.969,0,0,1-2.975-3.007,2.475,2.475,0,0,0-.015-.691c-.068-.223-.363-.219-.543-.342a2.685,2.685,0,0,1-1.258-2.3c-.01-.963-.006-1.925-.008-2.888q0-.924,0-1.848v-7.037c0-.087.007-.173.007-.26q0-4.35,0-8.7C52.381,1614.264,52.386,1614.163,52.388,1614.062Zm8.6,23.738H56.513c-.528,0-.528,0-.519.536a1.2,1.2,0,0,0,1.3,1.281H62c.919,0,1.838,0,2.757,0a1.164,1.164,0,0,0,1.181-1.026c.024-.185.007-.376.025-.562s-.04-.233-.225-.233C64.154,1637.8,62.57,1637.8,60.985,1637.8Z" transform="translate(-37.766 -39.918)" fill="#ecb112"/>
    <path id="Caminho_26577" data-name="Caminho 26577" d="M14.608,1641.074v1.818c-.261,0-.521,0-.782,0a.966.966,0,0,1-.995-.649q-.962-2.273-1.948-4.536a1.833,1.833,0,0,0-1.632-1.148c-.429-.035-.612.215-.493.629.78,2.728,1.553,5.458,2.343,8.183a3.525,3.525,0,0,0,2.575,2.543c.3.086.621.132.932.2q0,.924,0,1.848a9.123,9.123,0,0,1-2.375-.641,5.37,5.37,0,0,1-2.881-3.455q-1.177-4.113-2.35-8.226a2.241,2.241,0,0,1,2.49-2.885,3.709,3.709,0,0,1,3.129,2.381c.519,1.223,1.051,2.441,1.564,3.666C14.273,1641.008,14.376,1641.123,14.608,1641.074Z" transform="translate(0 -57.667)" fill="#027c7b"/>
  </g>
</svg>
