<svg width="48" height="48" viewBox="0 0 48 48" fill="none" xmlns="http://www.w3.org/2000/svg">
<path d="M30.7097 27.8806L27.8817 30.7094L32.1249 34.9514L34.9529 32.1226L30.7097 27.8806Z" fill="#ECB11F"/>
<path d="M32.126 35.661L27.176 30.711L30.711 27.175L35.661 32.125L32.126 35.661ZM28.59 30.711L32.126 34.247L34.247 32.125L30.711 28.589L28.59 30.711Z" fill="#007E7A"/>
<path d="M45.2071 42.379L42.3791 45.207C41.9881 45.598 41.3561 45.598 40.9651 45.207L31.0661 35.308C30.6751 34.917 30.6751 34.285 31.0661 33.894L33.8941 31.065C34.2851 30.675 34.9171 30.675 35.3081 31.065L45.2071 40.965C45.5981 41.355 45.5981 41.988 45.2071 42.379Z" fill="#007E7A"/>
<path d="M41.6721 45.999C41.2881 45.999 40.9031 45.853 40.6111 45.561L30.7121 35.662C30.1271 35.077 30.1271 34.126 30.7121 33.541L33.5401 30.712C34.1241 30.128 35.0751 30.129 35.6611 30.712L45.5601 40.612C46.1451 41.197 46.1451 42.149 45.5601 42.734L42.7321 45.562C42.4401 45.853 42.0561 45.999 41.6721 45.999ZM34.6011 31.272C34.4731 31.272 34.3451 31.321 34.2471 31.418L31.4191 34.247C31.2241 34.442 31.2241 34.759 31.4191 34.954L41.3181 44.853C41.5131 45.048 41.8301 45.048 42.0251 44.853L44.8531 42.025C45.0481 41.83 45.0481 41.513 44.8531 41.317L34.9541 31.417C34.8561 31.321 34.7291 31.272 34.6011 31.272Z" fill="#007E7A"/>
<path d="M43.602 41.273C43.474 41.273 43.346 41.224 43.248 41.127L35.47 33.349C35.275 33.154 35.275 32.837 35.47 32.642C35.665 32.447 35.982 32.447 36.177 32.642L43.955 40.42C44.15 40.615 44.15 40.932 43.955 41.127C43.857 41.224 43.729 41.273 43.602 41.273Z" fill="#E8EAF6"/>
<path d="M18.5 34.5C27.3366 34.5 34.5 27.3366 34.5 18.5C34.5 9.66344 27.3366 2.5 18.5 2.5C9.66344 2.5 2.5 9.66344 2.5 18.5C2.5 27.3366 9.66344 34.5 18.5 34.5Z" fill="#BDBDBD"/>
<path d="M18.5 35C9.402 35 2 27.598 2 18.5C2 9.402 9.402 2 18.5 2C27.598 2 35 9.402 35 18.5C35 22.203 33.802 25.702 31.534 28.619C31.363 28.837 31.049 28.875 30.833 28.706C30.615 28.537 30.575 28.223 30.745 28.005C32.874 25.266 34 21.979 34 18.5C34 9.953 27.047 3 18.5 3C9.953 3 3 9.953 3 18.5C3 27.047 9.953 34 18.5 34C22.527 34 26.344 32.462 29.245 29.67C29.443 29.48 29.76 29.484 29.952 29.684C30.143 29.883 30.138 30.2 29.938 30.391C26.85 33.363 22.788 35 18.5 35Z" fill="#007E7A"/>
<path d="M18.5 32C25.9558 32 32 25.9558 32 18.5C32 11.0442 25.9558 5 18.5 5C11.0442 5 5 11.0442 5 18.5C5 25.9558 11.0442 32 18.5 32Z" fill="#ECB11F"/>
<path d="M18.5 32.5C10.78 32.5 4.5 26.22 4.5 18.5C4.5 10.78 10.78 4.5 18.5 4.5C26.22 4.5 32.5 10.78 32.5 18.5C32.5 26.22 26.22 32.5 18.5 32.5ZM18.5 5.5C11.332 5.5 5.5 11.332 5.5 18.5C5.5 25.668 11.332 31.5 18.5 31.5C25.668 31.5 31.5 25.668 31.5 18.5C31.5 11.332 25.668 5.5 18.5 5.5Z" fill="white"/>
<path d="M17.627 8.536C17.369 8.536 17.15 8.338 17.13 8.077C17.108 7.802 17.313 7.56 17.587 7.538C17.889 7.513 18.192 7.5 18.5 7.5C18.776 7.5 19 7.724 19 8C19 8.276 18.776 8.5 18.5 8.5C18.22 8.5 17.943 8.512 17.669 8.534C17.654 8.535 17.641 8.536 17.627 8.536Z" fill="white"/>
<path d="M8 19C7.724 19 7.5 18.776 7.5 18.5C7.5 13.855 10.438 9.689 14.813 8.133C15.074 8.039 15.36 8.176 15.452 8.437C15.545 8.697 15.409 8.983 15.149 9.076C11.172 10.49 8.5 14.277 8.5 18.5C8.5 18.776 8.276 19 8 19Z" fill="white"/>
</svg>
