<svg xmlns="http://www.w3.org/2000/svg" width="30" height="39.311" viewBox="0 0 30 39.311">
  <g id="Grupo_27477" data-name="Grupo 27477" transform="translate(1460.311 -1143.769)">
    <g id="Grupo_27473" data-name="Grupo 27473" transform="translate(-1460.311 1153.58)">
      <path id="Caminho_26578" data-name="Caminho 26578" d="M-1431.422,1198.973H-1459.2a1.111,1.111,0,0,1-1.111-1.111,1.111,1.111,0,0,1,1.111-1.111h27.778a1.111,1.111,0,0,1,1.111,1.111A1.111,1.111,0,0,1-1431.422,1198.973Z" transform="translate(1460.311 -1196.751)" fill="#ecb11f"/>
    </g>
    <g id="Grupo_27474" data-name="Grupo 27474" transform="translate(-1442.354 1143.769)">
      <path id="Caminho_26579" data-name="Caminho 26579" d="M-1362.233,1165.614a1.108,1.108,0,0,1-.786-.325,1.111,1.111,0,0,1,0-1.572l9.035-9.035-9.016-9.016a1.111,1.111,0,0,1,0-1.571,1.111,1.111,0,0,1,1.571,0l9.8,9.8a1.111,1.111,0,0,1,0,1.571l-9.821,9.821A1.108,1.108,0,0,1-1362.233,1165.614Z" transform="translate(1363.344 -1143.769)" fill="#007e7a"/>
    </g>
    <g id="Grupo_27475" data-name="Grupo 27475" transform="translate(-1460.311 1171.046)">
      <path id="Caminho_26580" data-name="Caminho 26580" d="M-1459.2,1293.289h27.778a1.111,1.111,0,0,0,1.111-1.111,1.111,1.111,0,0,0-1.111-1.111H-1459.2a1.111,1.111,0,0,0-1.111,1.111A1.111,1.111,0,0,0-1459.2,1293.289Z" transform="translate(1460.311 -1291.067)" fill="#007e7a"/>
    </g>
    <g id="Grupo_27476" data-name="Grupo 27476" transform="translate(-1460.311 1161.235)">
      <path id="Caminho_26581" data-name="Caminho 26581" d="M-1449.379,1259.93a1.108,1.108,0,0,0,.786-.325,1.111,1.111,0,0,0,0-1.571l-9.035-9.035,9.016-9.016a1.111,1.111,0,0,0,0-1.571,1.111,1.111,0,0,0-1.571,0l-9.8,9.8a1.111,1.111,0,0,0,0,1.571l9.821,9.821A1.108,1.108,0,0,0-1449.379,1259.93Z" transform="translate(1460.311 -1238.085)" fill="#ecb11f"/>
    </g>
  </g>
</svg>
